<?xml version="1.0" encoding="UTF-8"?><svg id="uuid-3f540b91-3ca8-4be2-b196-fa1c8db5e656" xmlns="http://www.w3.org/2000/svg" width="622.88" height="619.23" viewBox="0 0 622.88 619.23"><defs><style>.uuid-f5562765-d9b4-4b0f-b47e-20929d94c129{fill:#fac03e;}.uuid-ee365674-9182-453c-8fb1-7c0a86e70dc3{fill:#ea5506;}.uuid-bd5a5cd1-ad5a-4d18-b2ed-e2e3db06f064{fill:#fff;}.uuid-2561b4ff-e239-451c-8487-61047a49c4d3{fill:#fffcdb;}.uuid-cd1a3307-dd54-4b94-8227-b5c69b6aacf5{fill:#fff799;}.uuid-d894b491-b7c6-49be-930c-e47d0d678d32{fill:#7ecef4;}.uuid-358aeb4b-b630-41fd-b418-4d7d55523f0f{fill:#231916;}</style></defs><g id="uuid-5c641a5a-8f53-4ef0-824f-715da8f20851"><path class="uuid-358aeb4b-b630-41fd-b418-4d7d55523f0f" d="m622.34,277.31c1.58,8.59-.21,16.42-6.7,22.9-5.51,5.53-12.37,8.33-19.68,10.17-5.33,1.35-10.81,2.14-16.95,3.31.63,2.85,1.37,5.33,1.69,7.88.69,5.13,1.55,10.28,1.63,15.45.08,5.86-3.39,9.56-8.77,11.65-5.46,2.14-11.06,2.25-16.82,1.93-14.68-.87-20.81-13.18-18.05-24.48.99-4.05,1.61-8.18,2.39-12.19-.69-.3-13.29-1.76-25.73-7.91-7.78-4.36-16.16-11.09-16.37-18.79-.3-9.87,2.4-18.2,7.88-26.54,4.54-7.35,13.61-17.13,21.72-23,14.27-10.3,29.86-13.38,46.63-7.7,6.4,2.17,12.55,5.33,18.43,8.72,15.07,8.69,25.5,21.11,28.7,38.62Zm-9.89,6.68c3.34-7.55-.39-18.77-7.73-26.41-1.93,1.37-3.77,2.91-5.84,4.06-4.92,2.76-9.21,2.27-13.56-1.27-6.53-5.3-8.29-11.95-5.46-20.48-11.78-7.83-30.93-8.01-44.31,1.25-3.6,2.25-8.34,5.78-14.22,12.62,6.7,5.84,6.89,13.05,2.91,19.51-3.34,5.48-9.69,6.52-16.04,5.27-2.11,7.82,4.74,17.14,13.92,19.99,1.35-3.47,1.97-4.9,4.8-7.44,4.1-3.69,9.97-4.56,14.73-1.81,5.31,3.08,8.29,6.27,8.33,12.59,0,.97.12,1.68-.16,3.14,15.93,1.23,31.59-.99,46.88-5.25-.97-5.3-1.04-9.28,2.25-12.9,3.49-3.87,9.59-3.11,13.51-2.88Zm-1.51,4.36c-7.96-1.53-11.55,1.84-10.17,9.43,4.29-2.09,8.19-4.31,10.17-9.43Zm-22.41-32.04c4.21,2.99,8.42,2.04,12.36-3.18-4.67-4.79-9.87-8.28-15.52-11.12-3.32,4.72-1.94,10.66,3.16,14.3Zm-18.4,82.71c3.65-1.78,5.79-4.82,5.31-9.07-.59-5.13-1.4-10.25-2.14-15.63-2.25,0-3.29.36-5.5.36-.25,2.16-.56,5.99-.66,8,0,1.61-1.32,2.78-1.68.94-.39-2.06-1.1-8.05-1.1-8.9h-4.77c-.74,3.85-1.42,12.7-2.14,16.4-.38,1.93-1.55,1.56-1.6-.25,0-3.52-.03-12.39-.03-16.26h-6.35c-.81,5.56-1.81,11.16-2.37,16.78-.33,3.5,1.3,6.27,4.67,7.83,6.17,2.85,12.32,2.7,18.35-.21Zm-24.66-34.37c.99-6.3-2.58-11.6-8.39-12.8-4.66-.97-9.25,2.3-11.11,8.19,6.42,2.6,12.59,4.76,19.5,4.61Zm-25.11-34.62c2.57-4.01,2.02-9.63-1.74-12.72-4.29,3.85-7.27,8.97-9.31,16.62,4.64.58,8.84-.44,11.06-3.9Z"/><path class="uuid-358aeb4b-b630-41fd-b418-4d7d55523f0f" d="m621.88,387.01c2.71,15.2-1.96,28.3-12.47,39.42-2.42,2.57-5.63,4.16-9,5.18-4.05,1.2-6.22,5.94-10.58,7.6-6.47,2.47-12.93,3.16-19.45.3-.49.31-.99.48-1.27.81-7.35,8.59-16.6,10.2-27.02,7.32-10.15-2.81-18.87-7.88-25.5-16.24-.51-.64-1.04-1.27-1.58-1.86-.21-.25-.51-.39-1.17-.89-3.01,2.71-6.09,5.51-9.38,8.52,8.01,10.74,7.82,22.99,6.12,35.16-1.02,7.34,1.56,12.55,6.4,17.36,2.53,2.52,5.08,5.03,7.49,7.7,3.92,4.33,7.04,9.77,7.93,15.57,1.15,7.45.02,14.07-6.45,18.35.28,4.41,1.18,8.34.64,12.06-1.79,12.19-13.33,20.76-26.18,19.96-2.75-.18-5.48-.58-8.16-.87-.35.41-.69.63-.76.9-2.01,8-7.82,12.42-14.76,15.84-4.99,2.45-10.09,4.54-15.66,5.15-7.82.87-15.2-.28-21.8-4.85-2.78-1.91-5.56-3.82-8.11-5.58-3.44,4.77-6.61,9.49-10.1,13.97-11.45,14.64-37,21.26-54.91,7.77-.53-.38-1.1-.67-1.94-1.2-.89.94-1.84,1.76-2.58,2.76-10.68,14.05-25.32,20.65-42.48,21.78-7.75.53-15.61.03-23.4-.59-9.59-.77-17.65-5.48-24.81-11.57-4.05-3.46-7.45-7.65-11.5-11.88-11.42,7.72-23.99,11.55-37.81,5.76-13.15-5.5-22.2-15.01-26.93-29.35-6.27,5.08-12.27,9.91-20.24,10.63-7.68.69-14.96-.87-21.57-4.8-6.6-3.9-12.92-8.26-16.26-15.88-10.63,3.52-20.98,5.43-30.21-2.53-9.05-7.8-10.28-17.98-7.98-28.99-.82-.67-1.42-1.2-2.06-1.66-7.12-5.27-9.21-12.55-7.45-20.78,1.61-7.54,5.3-13.97,12.72-17.52,2.5-1.2,4.84-2.7,7.24-4.06,2.7-1.53,3.72-3.46,2.99-6.81-1.73-8.21-1.55-16.6.38-24.73,1.33-5.61,3.9-10.94,6.15-17.01-2.65-2.45-5.96-5.5-9.46-8.72-1.2,1.37-2.16,2.42-3.08,3.5-7.57,8.92-17.21,14.23-28.65,16.39-8.8,1.66-16.45-.43-22.59-7.17-.54-.59-.81-1.45-1.14-2.07-7.11,3.06-13.46,2.78-19.74.25-1.5-.59-3.32-1.07-4.29-2.19-3.47-4.05-8.31-5.79-12.69-8.39-2.58-1.53-4.89-3.83-6.71-6.25-6.76-8.98-10.38-18.97-9.76-30.47.64-11.34,6.19-16.93,17.62-16.82h2.58c.16-.97.26-1.76.41-2.52,1.93-9.82,9.86-15.96,19.81-14.69,5.92.76,11.83,2.14,17.56,3.83,5.33,1.58,10.58,2.24,15.81.39,11.9-4.16,22.8-1.42,33.17,4.62,9.25,5.4,17.75,12.39,27.17,18.16.1-.76.03-3.16.07-4.18.31-15.6-.38-37.45,8-86.18,1.3-7.54,6.3-14.18,12.62-18.51.05-.03.08-.07.13-.1,2.01-1.35,2.17-1.74,2.17-1.74,1.33-68.78,49.99-132.83,118.91-149.2,14.89-3.55,30.11-4.54,45.54-3.52,32.04,2.12,60.57,13.15,85.46,33.1,28.99,23.25,47.52,53.24,54.89,89.74,1.73,8.57,2.09,17.44,2.83,26.18l.3,4.92c10.88,3.47,14.41,15.89,16.73,25.24,2.04,8.16,3.13,16.63,3.95,25.03,1.79,18.82,2.06,37.73,1.37,56.62-.02.48.1.95.21,1.93,1.25-.76,2.3-1.38,3.32-2.02,8.98-5.58,17.75-11.52,26.98-16.67,9.66-5.4,19.99-7.24,30.87-3.42,4.49,1.56,9.4,1.53,13.95.2,5.94-1.73,11.99-3.41,18.12-4.25,11.22-1.51,18.49,3.75,21.18,14.68.2.76.39,1.51.58,2.19,2.65.21,5.08.25,7.45.66,6.71,1.15,10.65,4.72,11.81,11.27Zm-8.61,18.77c1.79-4.59,1.73-9.56.86-14.4-.48-2.55-1.33-5.07-3.97-6.35-4.34-2.14-10.25-.44-12.93,3.64-.94,1.43-1.32,2.78-.54,4.49,4.1,9.13,6.57,18.63,5.53,28.81.36.18.72.35,1.07.53,1.2-1.22,2.75-2.25,3.54-3.69,2.34-4.25,4.69-8.54,6.45-13.03Zm-19.25,13.31c.12-1.14.18-2.27.13-3.41-.43-9.3-2.9-17.95-8.41-25.54-1.94-2.68-4.36-4.92-8.13-4.48-5.53.67-10.32,7.85-8.47,13.2,3.54,10.23,5.79,20.63,4.61,31.72,11.35,4.39,19.12-.2,20.27-11.5Zm-4.43-36.2c1.91-1.74,3.67-2.98,3.54-5.78-.25-5.56-3.11-8.79-8.74-9.03-5.13-.25-10,1.05-14.73,2.9-7.7,3.01-15.5,3.46-23.43,1.1-9.69-2.88-18.72-1.17-27.08,4.13-13.05,8.28-26.05,16.65-38.9,25.22-5.43,3.6-11.02,7.4-14.41,13.2-.59,1.04-.92,2.27-2.14,3.82-1.46-6.55,2.65-13.87,6.99-18.15,1.97-1.94,4.15-3.69,5.97-5.76.97-1.12,1.97-2.75,1.97-4.15-.12-14.81.1-29.63-.81-44.41-.81-13.13-2.7-26.21-4.51-39.26-.67-4.95-2.29-9.79-3.8-14.58-.69-2.16-1.93-4.33-4.66-5.28-1.93,26.52-9.95,50.64-24.32,72.61-1.61,2.47-1.32,4.87-1.02,7.47.61,5.33,1.15,10.66,1.68,16.01,1.35,13.59,2.63,27.2,4.03,40.81.2,1.93.69,3.85,1.22,5.73,3.65,13.23,22.46,21.92,34.77,12.21,3.97-3.11,8.29-5.74,12.32-8.79,5.17-3.9,10.38-7.77,14.41-13.16-2.83-4.69-5.74-13.71-3.52-15.14,1.69-.82,2.88,2.02,4.11,3.22,1.04,1,1.74,2.34,2.67,3.47,4.72,5.79,9.18,11.81,14.25,17.28,5.56,5.99,12.8,9.53,20.7,11.35,14.22,3.27,20.83-6.22,20.45-15.94-.33-8.11-2.2-15.76-5.28-23.17-1.53-3.67-4.16-6.63-7.6-8.67-3.93-2.35-7.82-1-9.64,3.18-1.4,3.24-1.53,6.6-.95,10.05.94,5.58,1.33,10.51,7.86,18.77-2.44.43-4.25-1.09-5.99-2.67-2.12-1.86-3.64-4.25-5.35-7.85-2.95-6.24-4.67-12.82-2.58-19.86,2.78-9.35,11.96-13.13,20.5-8.24,1.91,1.1,3.64,2.52,5.64,3.93,2.47-5.07,5.31-9.33,11.2-10.88,6.09-1.61,10.6,1.37,15.15,4.29Zm-73.48,138.61c9.95-.92,7.63-10.25,2.14-17.72-3.31-4.49-7.6-8.24-11.44-12.29-.53.46-.69.54-.76.67-.39.71-.77,1.43-1.17,2.14-7.16,12.88-16.19,24.02-29.47,31.11-3.42,1.84-6.88,3.65-10.4,5.28-1.63.77-3.75,1.28-4.8-.69-1.23-2.34,1.14-2.9,2.52-3.88,5.82-4.16,11.67-8.31,17.41-12.57,5.54-4.11,8.21-10.42,11.75-16.04,7.62-12.03,9.38-25.17,6.96-38.95-.76-4.28-2.3-8.46-6.19-11.42-.89.59-1.74,1.04-2.47,1.65-4.43,3.8-9.63,5.99-15.19,7.47-13.25,3.52-30.23-2.83-34.85-16.93-1.05-3.22-3.8-12.46-4.2-13.76-11.16-.69-21.47,1.48-31.29,5.56-10.5,4.34-20.85,9.15-30.97,14.31-10,5.08-19.37,11.45-29.47,16.27-31.77,15.19-64.71,27.12-99.25,34.45-8.8,1.86-17.51,3.62-26.56,2.85-1.45-.12-2.91-.33-4.36-.51-.77-.1-.94-1.15-.23-1.45,6.63-2.83,14.1-1.63,20.91-3.65,7.31-2.19,14.76-3.92,22.05-6.19,6.98-2.19,13.89-4.71,20.29-8.42-1.71-.23-3.32-.13-4.92,0-6.01.48-11.99,1.25-18.02,1.42-18.28.51-36.36-1.18-54.33-4.8-8.72-1.76-16.82-4.87-24.66-8.88-1.58-.67-2.25-2.04-1.86-2.83.51-1.09,2.02-.64,3.19.05.71.41,1.38.67,2.12,1,2.34,1.1,4.52,1.99,7.11,3.09,11.14,3.8,18.15,4.18,27.33,4.79,14.94.97,29.95.72,44.92.94,1.73.02,3.46-.3,5.18-.46,1.04-.07,1.07-.54.05-.9-7.11-2.68-14.43-4.95-21.29-8.19-6.81-3.21-13.18-7.37-19.73-11.12,9.61,2.62,18.74,6.19,28.05,9.23,9.51,3.13,19.28,5.07,29.34,5.36-4.72-2.17-9.58-3.95-14.28-6.04-14.36-6.33-27.4-14.91-40.38-23.66-7.26-4.9-15.02-9.08-22.76-13.21-4.62-2.47-10.35-3.41-14.81-2.95-1.37,7.85-2.39,13.13-4.99,19.55-1.23,3.01-4.8,6.94-7.34,9.07-11.72,9.72-27.63,8.9-40.31.1-1.43-.99-2.83-2.02-4.36-3.11-.58.81-1.02,1.27-1.3,1.83-6.45,12.65-6.65,25.68-1.73,38.75,4.95,13.11,12.88,25.39,23.41,34.37,3.75,3.21,7.34,5.35,12.64,7.52-5.05.66-10.09-.07-15.15-2.7-14.96-7.78-25.77-19.5-32.07-35.18-4.25,2.2-8.19,4.06-11.96,6.25-6.17,3.59-6.86,14.15-1.37,18.66,2.01,1.65,3.21,1.3,4.43-1.27,1.94-4.06,2.34-8.29.61-13.61,1.69,1,2.86,2.52,3.57,3.54,1.48,2.47,1.94,3.42,2.22,6.04.66,6.4-1.22,12.5-4.92,17.52-5.87,7.98,3.03,22.72,12.46,22.36,4.44-.18,8.67-.82,12.72-2.5,1.05-.43,2.11-1.69,2.34-2.83,1.48-7.27,1.38-14.27-4.48-19.96-.58-.56-.99-1.32-1.81-2.42,9.59,2.6,15.2,9.21,15.86,18.16.12,1.78.13,3.57.16,5.36.13,8.41,3.95,14.58,11.27,18.64,1.42.79,2.8,1.66,4.28,2.34,7.78,3.49,15.19,2.81,22.13-2.22,2.63-1.91,5.13-4,7.83-5.82,4.38-2.96,9.13-3.78,14.41-2.76,9.63,1.88,15.57,6.66,19.79,15.1.43.86,1.02,2.62,1.1,4.39q-17.52-12.55-22.1-11.48c1.51,6.19,4.72,11.45,9.15,15.88,10.07,10.07,21.85,14.1,35.79,6.45,3.54-1.94,7.27-3.73,11.14-4.87,14.08-4.16,24.5.3,34.78,11.32-8.11-3.37-15.76-5.54-24.78-4.95,6.45,9.2,14.28,15.35,24.52,17.39,6.3,1.23,12.95.84,19.45,1,8.82.23,17.1-2.04,24.88-6.04,5.63-2.9,10.37-6.93,15.02-12.29-9.59-.94-17.77,1.37-25.96,4.16,2.95-2.81,5.89-5.4,9.2-7.39,2.73-1.65,5.78-2.93,8.85-3.78,7.37-2.09,14.51-.74,21.37,2.37,3.26,1.5,6.43,3.13,9.67,4.66,7.62,3.59,15.17,3.22,22.48-.76,2.7-1.46,5.38-3.16,7.63-5.22,5.46-4.97,9.61-10.84,11.45-18.84-9.61,1.14-15.52,7.7-22.89,12.98,1.5-5.99,5-9.84,8.36-13.74,6.27-7.26,16.8-9.35,25.27-4.82,3.13,1.66,5.97,3.93,8.79,6.12,3.69,2.9,8.98,6.2,14.1,7.19,2.96.74,6.96.43,10.63-.46,4.67-1.14,8.93-3.73,11.85-7.55,2.96-3.85,4.16-8.44,2.88-15.47-.56-3.01-.89-6.12-.84-9.18.12-6.04,2.55-10.83,8.41-13.57-2.19,4.71-3.34,8.9-2.5,12.16,1.68,6.5,4.59,10.5,10.89,12.08,3.39.84,7.04.9,10.56.79,1.6-.05,3.47-1.07,4.66-2.22,5.03-4.87,6.05-12.75,2.73-18.91-.54-1-1.17-1.97-1.78-2.93-4.05-6.25-3.9-10.14-1.53-16.62.84-2.02,3.04-3.67,3.73-4.25-1.48,8.64-.94,12.65,3.44,15.48Zm-122.74-128.82c40.49-25.8,72.86-86.56,57.98-149.07-16.63-69.93-77.48-112.51-140.63-112.12-63.61.39-123.11,43.44-139.3,112.58-15.04,64.24,19.53,124.32,57.79,148.33-3.24-4.16-4.36-8.42-4.08-13.25,2.11,2.83,2.58,3.73,3.95,5.43,3.97,4.95,7.68,10.14,11.88,14.87,5.38,6.1,11.17,11.83,18.79,15.29,13.25,5.96,28.09,3.47,36.36-10.66.74-1.27,1.46-2.55,2.25-3.77.58-.86,1.27-1.65,2.35-3.06,1.37,4.46-.15,7.82-1.45,10.97-1.37,3.34-3.41,6.4-5.17,9.61,8.77,2.35,27.66,2.53,34.96-.36-4.28-5.74-7.78-11.75-6.71-19.35,1.25.92,1.97,2.09,2.78,3.21,2.29,3.14,4.38,6.48,6.98,9.36,5.61,6.2,13.16,7.7,20.95,6.86,8.65-.92,18.89-6.12,24.81-12.54,6.27-6.81,10.68-11.57,15.89-19.94,1.28-2.39.81-1.58,3.13-5.46.3,7.49-.36,9.3-3.52,13.06Zm42.09,18.92c-.84-12.9-1.96-25.63-3.85-38.62-.89.56-1.2.67-1.42.89-.89.95-1.74,1.93-2.62,2.9-11.27,12.8-24.06,23.81-38.96,32.2-6.09,3.44-11.95,7.06-17.34,11.6-8.16,6.84-17.67,9.41-28.28,6.88-1.35-.33-2.85-.15-4.26-.03-8.24.71-16.49,2.02-24.75,2.07-8.57.07-17.18-1.02-25.75-1.66-3.85-.3-7.62-1.04-11.55-.02-2.44.64-5.15.48-7.72.28-8.74-.71-15.45-5.54-21.78-11.06-1.46-1.27-2.95-2.62-4.64-3.47-18.58-9.36-34.44-22.13-48.09-37.73-.89-1.04-1.94-1.94-3.42-3.39-1.27,13.2-2.45,25.6-3.67,38.27,1.33.15,2.11.31,2.9.31,9.38.12,17.93,3.06,25.62,8.23,15.98,10.73,32.86,19.83,49.97,28.51,10.88,5.51,22.1,10.25,33.86,13.61,7.6,2.16,14.87,2.57,22.13-1.53,9.05-5.1,18.64-9.31,27.48-14.76,13.34-8.19,27.23-15.25,41.46-21.67,10.37-4.69,20.99-8.82,32.32-10.65,3.95-.63,8-.77,12.37-1.17Zm-252.14-44.33c.39-3.6-.1-6.47-2.07-9.56-11.44-17.92-18.82-37.42-21.78-58.51-.58-4-1.04-8-1.6-12.44-3.72,2.35-5.18,5.66-5.92,9.1-1.33,6.19-2.2,12.47-3.24,18.71-4.1,24.66-5.28,49.49-4.69,74.45.05,2.47-.02,3.01-.02,3.01,2.25,1.86,6.91,6.88,8.92,9.02,4.28,4.54,6.8,10.3,5.3,17.16-.61-1.53-1.18-2.32-1.81-3.37-3.49-5.92-8.72-10.09-14.28-13.79-12.32-8.19-24.83-16.12-37.23-24.19-9.1-5.91-18.76-7.7-29.32-4.54-7.06,2.09-14.15,1.73-21.08-.95-1.81-.71-3.65-1.48-5.54-1.83-3.67-.64-7.39-1.35-11.07-1.37-4.06,0-6.88,2.55-7.88,6.15-1.05,3.78-.38,5.35,3.62,8.36,11.93-7.73,18.16-6.2,26.24,6.58,2.14-1.43,4.2-3.01,6.43-4.28,5.86-3.31,16.62-1.78,19.17,8.01.72,2.78,1.09,5.76,1.02,8.62-.18,8.82-1.22,12.98-6.55,19.45-1.32,1.58-6.61,4.64-8.19,2.48,4.03-3.69,5.05-6.52,6.4-9.44,2.76-5.97,3.26-11.2.99-17.87-1.86-5.41-6.68-6.91-11.14-3.26-2.22,1.83-4.48,4.05-5.71,6.57-4.03,8.28-6.33,17.11-5.97,26.39.23,5.92,2.9,10.71,8.46,13.29,3.8,1.76,7.95,1.73,11.96.71,8.03-2.04,15.42-5.54,21.06-11.67,5.07-5.48,9.56-11.48,14.12-17.39,1.94-2.52,4.82-7.16,6.58-6.24,2.71,1.42-1.02,10.48-3.49,15.19.48.64.79,1.2,1.22,1.66,8.36,8.84,18.41,15.52,28.6,21.93,2.83,1.78,6.94,2.86,10.22,2.42,11.65-1.58,20.29-7.59,22.26-20.34.86-5.46,1.43-10.97,1.97-16.47,1.37-13.92,2.52-27.87,4.06-41.78Zm-129.69,32.05c1.61-4.66-1.04-10.37-5.64-12.72-4.03-2.06-7.75-.86-10.88,3.55-5.73,8.1-8.41,17.19-8.33,27.02.03,2.83.95,5.74,1.88,8.47,1.05,3.14,3.55,5.02,6.68,5.91,3.85,1.1,7.67,1.25,11.63-.84,0-3.21-.08-6.14.02-9.05.23-7.72,2.11-15.09,4.64-22.34Zm-27.66-5.86c.38-1,.74-2.24.51-3.21-.86-3.32-5.22-6.12-9.18-6.15-4.61-.02-6.96,1.63-8.16,6.1-.56,2.02-.84,4.15-.9,6.25-.28,8.93,3.88,16.29,8.62,23.4.74,1.1,2.07,1.81,3.82,3.29-.1-14.86.1-15.8,5.3-29.68Z"/><path class="uuid-358aeb4b-b630-41fd-b418-4d7d55523f0f" d="m583.25,275.65c.03,7.57-3.82,11.5-11.29,11.57-7.4.07-13.08-5.25-13.34-11.95-.23-5.86,5.64-11.44,12.64-11.58,6.75-.13,11.98,5.17,11.99,11.96Zm-4.16,3.39c.95-3.09.69-6.09-1.71-8.57-2.34-2.39-5.45-3.08-8.44-1.88-4.18,1.66-6.76,5.18-6.1,8.34.69,3.41,5.17,6.45,9.31,6.35,3.59-.08,6.1-1.51,6.94-4.25Z"/><path class="uuid-358aeb4b-b630-41fd-b418-4d7d55523f0f" d="m551.03,242.13c4.85,2.98,7.22,10.14,5.36,15.52-1.74,5-7.47,8.34-13.36,7.77-5.79-.56-10.78-5.56-11.63-11.47-.53-3.73,1.33-7.65,4.26-10.5,2.86-1.96,4.18-3.13,8.05-3.22,3.31,0,5.27.77,7.32,1.91Zm.36,13.79c1.22-3.03.51-7.88-1.86-9.48-1.3-.89-2.45-1.63-4.84-1.63-7.22.12-10.27,5.61-7.86,11.19,1.32,3.04,4,4.8,7.29,4.67,3.36-.15,5.96-1.5,7.27-4.76Z"/><path class="uuid-358aeb4b-b630-41fd-b418-4d7d55523f0f" d="m549.2,123.07c3.11,1.68,4.48,3.72,4.39,7.29-.2,7.31-.07,14.63-.07,21.95h-.03c0,7.32.03,14.64-.02,21.95-.03,3.65-1.4,6.5-4.79,8.39-1.84,1-3.67,2.04-5.51,3.06,5.59,11.52,10.35,23.51,14.15,35.7-3.46.12-6.88.54-10.25,1.27h-.03c-3.59-11.52-7.47-21.37-12.65-32.08-8,4.48-15.99,8.97-23.96,13.51-2.24,1.27-4.13,1.46-6.37.2-12.72-7.19-25.49-14.35-38.24-21.52-.99-.56-2.14-1.05-2.8-1.91-.9-1.2-1.97-2.7-2.01-4.1-.28-12.67-.33-25.36-.48-38.02-.13-10.86.07-11.75,9.31-17.31,3.03-1.83,6.09-3.6,9.15-5.36-14.71-13.54-30.98-25.22-48.46-34.82-.36.26-.76.51-1.17.76-12.8,7.08-25.55,14.22-38.25,21.46-2.25,1.28-4.15,1.4-6.37.15-12.59-7.11-25.22-14.17-37.83-21.26-1.14-.64-2.42-1.23-3.19-2.2-.94-1.17-1.94-2.7-1.96-4.1-.18-7.8-.26-15.6-.33-23.38-9.76-1.17-19.7-1.79-29.57-1.79-10.4,0-20.86.67-31.11,1.97,0,6.89.02,13.79-.02,20.68-.02,3.88-1.6,6.7-5.17,8.65-12.67,6.96-25.27,14.05-37.83,21.21-2.22,1.27-4.13,1.53-6.37.28-12.74-7.21-25.49-14.35-38.24-21.54-.25-.13-.48-.3-.72-.44-17.14,9.49-33.1,20.99-47.58,34.31,4.25,2.34,8.47,4.67,12.74,6.98,3.27,1.76,4.77,3.93,4.67,7.67-.2,7.32-.07,14.64-.07,21.97h-.03c0,7.16.07,14.31-.03,21.46-.05,3.6-1.4,6.58-4.76,8.46-12.92,7.19-25.83,14.4-38.67,21.72-2.32,1.32-4.21,1.12-6.37-.1-7.73-4.34-15.47-8.67-23.22-13-5.05,10.48-8.87,20.21-12.39,31.53h-.03c-3.37-.72-6.8-1.15-10.23-1.27,3.73-11.99,8.41-23.82,13.89-35.18-1.38-.77-2.78-1.56-4.18-2.34-1.55-.87-3.22-1.69-4.46-2.93-1.04-1.04-2.12-2.63-2.14-4-.2-14.48-.12-28.96-.3-43.42-.05-4.57,1.71-7.7,5.66-9.95,12.7-7.26,25.34-14.61,37.98-21.97,2.01-1.17,3.7-1.4,5.87-.16,5.59,3.16,11.19,6.3,16.8,9.43,15.88-14.99,33.57-27.86,52.64-38.34,0-10.66-.07-21.32-.35-31.97-.36-13.51-.15-14.41,11.25-21.11,10.79-6.35,21.77-12.34,32.63-18.56,2.04-1.17,3.72-1.27,5.87-.05,12.87,7.27,25.78,14.48,38.78,21.5,3.11,1.68,4.54,3.69,4.46,7.26-.13,4.38-.12,8.75-.1,13.11,10.27-1.23,20.72-1.89,31.11-1.89,9.84,0,19.71.59,29.45,1.71-.02-1.35-.02-2.7-.05-4.05-.15-11.32.03-12.21,9.77-18.03,11.3-6.76,22.87-13.05,34.27-19.61,2.07-1.2,3.75-1.14,5.86.05,12.88,7.27,25.78,14.5,38.8,21.52,3.14,1.69,4.43,3.78,4.34,7.32-.2,7.31-.07,14.63-.07,21.95h-.03c0,6.7.03,13.41-.02,20.11,19.56,10.61,37.7,23.73,53.94,39.04,5.46-3.09,10.94-6.17,16.37-9.31,2.06-1.18,3.75-1.2,5.87,0,12.87,7.27,25.78,14.5,38.8,21.52Zm-2.55,52.22v-45.89c-.79-.56-1.28-.97-1.84-1.3-11.44-6.53-22.9-13-34.29-19.61-2.32-1.33-4.16-1.07-6.33.23-10.61,6.3-21.19,12.69-31.99,18.67-3.7,2.06-4.8,4.71-4.79,8.59.05,12.19,0,24.4-.16,36.61-.03,2.5.92,3.8,3.01,4.94,5,2.7,9.84,5.69,14.86,8.39,7.68,4.16,15.45,8.16,22.59,11.93,13.39-7.77,26.18-15.17,38.95-22.56Zm-119.24-100.7V28.58c-12.52-7.16-24.53-13.99-36.48-20.93-2.2-1.27-3.95-.79-5.91.36-10.91,6.47-21.77,13-32.81,19.2-3.06,1.71-3.98,3.88-4,7.03-.03,12.69-.07,25.39-.21,38.07-.03,2.07.69,3.27,2.47,4.26,5,2.71,9.87,5.68,14.87,8.37,7.83,4.25,15.73,8.37,23.08,12.27,13.44-7.8,26.34-15.29,38.98-22.62Zm-153.53.07V28.55c-12.36-7.08-24.37-13.89-36.31-20.83-2.17-1.27-3.92-.94-5.91.23-10.63,6.29-21.23,12.64-31.99,18.69-3.54,1.99-5.05,4.41-5.02,8.46.13,12.37,0,24.75-.12,37.1-.02,2.01.53,3.31,2.37,4.31,12.8,7.01,25.55,14.12,37.76,20.88,13.52-7.85,26.31-15.25,39.21-22.72Zm-118.73,100.78v-46.22c-12.49-7.16-24.5-14.02-36.48-20.91-1.71-.97-3.24-1.07-5.03-.12-12.75,6.81-25.24,14.05-37.81,22.51,0,13.94.03,28.09-.02,42.25-.02,1.99.63,3.27,2.45,4.28,5.02,2.7,9.87,5.68,14.87,8.37,7.83,4.26,15.75,8.37,23.23,12.36,6.89-4.13,13.28-8.03,19.74-11.78,6.43-3.73,12.97-7.32,19.04-10.74Z"/><path class="uuid-358aeb4b-b630-41fd-b418-4d7d55523f0f" d="m543.94,133.44c.58,1.05-1.18,2.16-1.66,2.55-4.31,3.5-27.49,15.35-30.64,15.5-1.51,0-.33-1.71.46-2.16,8.88-4.95,17.79-9.86,26.72-14.71,1.15-.63,4.61-2.04,5.12-1.18Z"/><path class="uuid-358aeb4b-b630-41fd-b418-4d7d55523f0f" d="m509.34,161.28c.07,9.31.26,18.13-1.09,27.89-.26,1.96-1.04,1.91-1.33.18-.41-1.46-.44-4.54-.46-6.02-.08-8.24.26-13.89.41-22.15,0-.82.36-4.39,1.15-4.39,1.02,0,1.3,3.34,1.32,4.49Z"/><path class="uuid-358aeb4b-b630-41fd-b418-4d7d55523f0f" d="m479.24,134.94c7.14,4.11,26.19,15.07,25.52,16.27-.97,1.96-15.93-7.17-27.18-14-1.32-.89-3.75-2.83-3.03-3.93.69-.46,3.75,1.12,4.69,1.66Z"/><path class="uuid-358aeb4b-b630-41fd-b418-4d7d55523f0f" d="m455.48,501.9c10.51-.41,17.1-1.73,24.02-4.46-7.26,5.5-10.91,7.68-24.02,4.46Z"/><path class="uuid-358aeb4b-b630-41fd-b418-4d7d55523f0f" d="m479,506.02c-5.15,7.78-12.37,10.45-31.66,4.25,16.93,1.42,21.67-.64,31.66-4.25Z"/><path class="uuid-358aeb4b-b630-41fd-b418-4d7d55523f0f" d="m465.04,517.4c-8.26,5.61-12.16,11.11-32.27,2.04,17.95,1.71,22.71.87,32.27-2.04Z"/><path class="uuid-358aeb4b-b630-41fd-b418-4d7d55523f0f" d="m333.4,508.11c31.66-14.53,63.3-29.04,94.95-43.57-14.96,16.08-88.77,49.89-94.95,43.57Z"/><path class="uuid-358aeb4b-b630-41fd-b418-4d7d55523f0f" d="m427.94,288.28c.53,13.79-2.27,27.1-6.2,40.23-1.96,6.57-4.39,12.9-7.88,18.81-1.53,2.6-3.31,4.95-5.91,6.65,1.27-3.87,2.9-7.5,4.38-11.2,4.31-10.76,6.61-18.86,8.85-30.14,2.12-10.65,3.59-25.21,2.34-36.08-.08-.43-.1-1.1,0-1.56.03-.77.26-1.48,1.48-.26.97,1,2.06,4.08,2.32,5.31.61,3.29.51,5.05.63,8.26Z"/><path class="uuid-358aeb4b-b630-41fd-b418-4d7d55523f0f" d="m424.53,32.45c.58,1.05-1.18,2.16-1.66,2.55-4.31,3.5-27.49,15.35-30.64,15.5-1.51,0-.33-1.71.48-2.16,8.87-4.95,17.77-9.87,26.7-14.71,1.17-.63,4.61-2.06,5.12-1.18Z"/><path class="uuid-358aeb4b-b630-41fd-b418-4d7d55523f0f" d="m417.77,224.62c.2.77.43,2.09-.58,2.58-1.55.53-2.58-3.22-3.14-4-3.06-6.57-4.43-8.8-8.88-14.13-7.8-8.61-25.88-11.11-35.67-6.91-6.48,3.26-9.82,5.31-13.97,9.12-.71.66-1.88-.02-1.6-.94,1.04-3.65,4.05-8.14,5.4-9.59,5.82-5.87,16.12-11.93,29.76-9.31,17.29,2.99,26.97,17.59,28.68,33.19Z"/><path class="uuid-358aeb4b-b630-41fd-b418-4d7d55523f0f" d="m413.72,250.26c5.3,21.44,3.04,42.29-.21,63.74-3.08,20.32-12.11,38.88-21.47,57.01-3.83,7.44-8.75,14.15-14.71,19.97-5.92,5.82-12.19,11.32-20.57,13.49-8.93,2.34-15.61-.25-20.6-7.93-.53-.81-1.1-1.63-1.45-2.53-1.86-4.84-4.01-9.61-5.41-14.59-4.29-15.35-5-31.08-4.43-47.09.66-19.1,2.34-37.81,5.66-56.57,2.25-12.75,6.27-24.81,13.13-35.97,5.08-8.26,11.27-15.24,20.12-18.84,12.72-5.2,25.75-4.41,36.74,4.61,7.29,5.97,11.07,16.14,13.2,24.7Zm-9.35,63.33c2.83-18.99,3.24-33.76.76-52.92-3.41-22.51-21.93-31.25-33.53-28.19-8.56,2.73-13.25,7.35-15.63,10.23-4.62,5.38-6.58,9.53-9.21,17.18,1.83.82,3.34,1.07,4.85,1.55,11.19,3.62,19.32,11.06,25.77,20.58,10.55,15.58,11.65,32.68,8.1,50.5-2.68,13.38-8.29,25.26-18.12,34.95-7.82,7.73-16.65,13.48-28.04,14.15,2.32,10.07,11.83,14.86,20.58,10.22,3.95-2.09,7.65-4.97,10.91-8.08,10.02-9.59,16.77-21.46,22.61-33.89,5.43-11.55,8.95-23.73,10.96-36.28Zm-39.8,47.21c11.68-15.04,17.56-32.27,15.5-51.45-1.69-15.66-9.08-28.33-22.28-37.25-4.06-2.75-8.82-4.06-13.61-4.06-.99,3.29-2.09,6.43-2.76,10.45,2.63-.48,5.22-.49,7.77.43,10.86,3.95,16.4,12.47,18.79,23.17,3.29,14.76,1.76,29.16-4.84,42.8-5.48,11.35-16.5,21.88-28.09,21.74.3,3.16.59,5,1.76,8.95,12.11-.21,20.99-6.07,27.76-14.76Zm-14.81-29.4c2.17-5.82,3.44-11.72,1.45-17.87-.86-2.68-2.22-5.63-5.69-5.89-2.39-.16-5.58,2.86-6.8,6.88-1.3,4.08-1.78,7.45-1.78,11.48s.05,7.86.69,11.68c.74,4.44,3.69,5.3,6.7,2.12,2.27-2.39,4.29-5.33,5.43-8.41Z"/><path class="uuid-358aeb4b-b630-41fd-b418-4d7d55523f0f" d="m381.69,547.18c19.19-.69,37.71-4.67,55.86-10.89-9.15,10.76-41.3,16.88-55.86,10.89Z"/><path class="uuid-358aeb4b-b630-41fd-b418-4d7d55523f0f" d="m410.47,443.52l.39.64c-1.15,1.07-2.29,2.16-3.46,3.18-15.99,13.9-34.11,24.45-53.33,33.04-18.1,8.11-36.49,15.5-55.56,21.08-4.43,1.3-8.84,2.29-13.44,1.43-1-.18-1.96-.71-4.08-1.51,4.26-1.43,7.35-2.76,10.6-3.52,15.65-3.65,30.09-10.38,44.39-17.34,23.53-11.47,46.83-23.38,70.22-35.1,1.4-.69,2.85-1.27,4.26-1.89Z"/><path class="uuid-358aeb4b-b630-41fd-b418-4d7d55523f0f" d="m389.93,60.29c.07,9.31.26,18.13-1.09,27.89-.26,1.96-1.04,1.91-1.33.18-.41-1.46-.44-4.54-.46-6.02-.08-8.24.26-13.89.41-22.15.02-.82.36-4.39,1.15-4.39,1.02,0,1.32,3.34,1.32,4.49Z"/><path class="uuid-358aeb4b-b630-41fd-b418-4d7d55523f0f" d="m359.85,33.94c7.12,4.11,26.18,15.07,25.5,16.27-.97,1.96-15.93-7.17-27.18-14-1.32-.89-3.75-2.83-3.01-3.95.67-.44,3.73,1.14,4.69,1.68Z"/><path class="uuid-358aeb4b-b630-41fd-b418-4d7d55523f0f" d="m364.43,559.64c1.76.64,3.7,1.17,4.48,3.77-18.99-3.59-37.83-5.41-56.78-5.63-18.89-.21-37.55,2.16-56.01,6.32-1.17.3-1.37-.44-.46-1.27,1.09-.67,2.11-1.58,3.29-1.99,11.35-3.9,14.31-5.48,25.72-9.21,2.14-.69,9.66-2.63,16.42-3.42,17.06-1.38,29.37-1.05,45.54,4.69,4.9,1.73,12.92,5,17.8,6.75Z"/><path class="uuid-358aeb4b-b630-41fd-b418-4d7d55523f0f" d="m297.99,332.33c.58,16.01-.13,31.74-4.43,47.09-1.4,4.99-3.55,9.76-5.41,14.59-.35.9-.92,1.73-1.45,2.53-4.99,7.68-11.67,10.27-20.6,7.93-8.37-2.17-14.64-7.67-20.57-13.49-5.96-5.82-10.88-12.54-14.71-19.97-9.36-18.13-18.4-36.69-21.47-57.01-3.26-21.46-5.51-42.3-.21-63.74,2.12-8.56,5.91-18.72,13.2-24.7,10.99-9.02,24.02-9.81,36.74-4.61,8.85,3.6,15.04,10.58,20.12,18.84,6.86,11.16,10.88,23.22,13.13,35.97,3.32,18.76,5,37.47,5.66,56.57Zm-10.18,34.27c-11.58.15-22.61-10.38-28.09-21.74-6.6-13.64-8.13-28.04-4.84-42.8,2.39-10.69,7.93-19.22,18.79-23.17,2.55-.92,5.13-.9,7.77-.43-.67-4.01-1.78-7.16-2.76-10.45-4.79,0-9.54,1.32-13.61,4.06-13.2,8.92-20.58,21.59-22.28,37.25-2.06,19.19,3.82,36.41,15.5,51.45,6.76,8.69,15.65,14.55,27.76,14.76,1.17-3.95,1.46-5.79,1.76-8.95Zm-2.58-28.93c.64-3.82.69-7.65.69-11.68s-.48-7.4-1.78-11.48c-1.22-4.01-4.41-7.04-6.8-6.88-3.47.26-4.84,3.21-5.69,5.89-1.99,6.15-.72,12.04,1.45,17.87,1.14,3.08,3.16,6.02,5.43,8.41,3.01,3.18,5.96,2.32,6.7-2.12Zm-9.12-77.78c-2.63-7.65-4.59-11.8-9.21-17.18-2.39-2.88-7.09-7.5-15.63-10.23-11.6-3.06-30.13,5.68-33.53,28.19-2.48,19.15-2.07,33.93.76,52.92,2.01,12.55,5.53,24.73,10.96,36.28,5.84,12.44,12.59,24.3,22.61,33.89,3.26,3.11,6.96,5.99,10.91,8.08,8.75,4.64,18.26-.15,20.57-10.22-11.37-.67-20.21-6.42-28.02-14.15-9.82-9.69-15.43-21.57-18.12-34.95-3.55-17.82-2.45-34.91,8.1-50.5,6.45-9.53,14.58-16.96,25.77-20.58,1.51-.48,3.03-.72,4.85-1.55Z"/><path class="uuid-358aeb4b-b630-41fd-b418-4d7d55523f0f" d="m261.02,521.07c23.64-4.46,33.63-5.96,56.21-13.82-19.51,11.04-28.5,16.34-56.21,13.82Z"/><path class="uuid-358aeb4b-b630-41fd-b418-4d7d55523f0f" d="m268.93,210.34c.28.92-.89,1.6-1.6.94-4.15-3.8-7.49-5.86-13.97-9.12-9.79-4.2-27.87-1.69-35.67,6.91-4.46,5.33-5.82,7.57-8.88,14.13-.56.77-1.6,4.52-3.14,4-1-.49-.77-1.81-.58-2.58,1.71-15.6,11.39-30.19,28.68-33.19,13.64-2.62,23.94,3.44,29.76,9.31,1.35,1.45,4.36,5.94,5.4,9.59Z"/><path class="uuid-358aeb4b-b630-41fd-b418-4d7d55523f0f" d="m267.65,32.26c.72,1.12-1.69,3.06-3.01,3.95-11.27,6.83-26.23,15.96-27.2,14-.66-1.2,18.38-12.16,25.52-16.27.95-.54,4.01-2.12,4.69-1.68Z"/><path class="uuid-358aeb4b-b630-41fd-b418-4d7d55523f0f" d="m243.64,546.03c-1.51,2.68-3.41,2.8-5.3,2.86-8.64.33-17.24-.23-25.62-2.52-6.09-1.66-12.09-3.64-18.03-5.79-2.34-.84-4.36-2.55-6.53-3.88-.92-.9-.59-1.14.36-.9,17.98,4.54,35.95,9.12,55.12,10.23Z"/><path class="uuid-358aeb4b-b630-41fd-b418-4d7d55523f0f" d="m235.35,60.19c.13,8.26.49,13.9.39,22.15,0,1.48-.05,4.56-.46,6.02-.3,1.73-1.07,1.78-1.33-.18-1.33-9.76-1.15-18.58-1.09-27.89.02-1.15.31-4.49,1.33-4.49.79,0,1.14,3.57,1.15,4.39Z"/><path class="uuid-358aeb4b-b630-41fd-b418-4d7d55523f0f" d="m230.1,48.34c.79.44,1.97,2.16.48,2.16-3.14-.15-26.33-11.99-30.64-15.5-.49-.39-2.24-1.5-1.66-2.55.51-.87,3.95.56,5.12,1.18,8.93,4.84,17.82,9.76,26.7,14.71Z"/><path class="uuid-358aeb4b-b630-41fd-b418-4d7d55523f0f" d="m210.54,342.76c1.48,3.7,3.11,7.34,4.38,11.2-2.6-1.69-4.38-4.05-5.91-6.65-3.49-5.91-5.92-12.24-7.88-18.81-3.93-13.13-6.73-26.44-6.2-40.23.12-3.21.02-4.97.63-8.26.26-1.23,1.35-4.31,2.32-5.31,1.22-1.22,1.45-.51,1.48.26.1.46.08,1.14,0,1.56-1.25,10.88.21,25.44,2.34,36.08,2.24,11.29,4.54,19.38,8.85,30.14Z"/><path class="uuid-358aeb4b-b630-41fd-b418-4d7d55523f0f" d="m181.83,514.24c.33.05.36.54.03.61-12.57,2.95-22.21.63-34.16-8-.16-.12-.03-.38.16-.31,15.99,5.4,22.16,6.32,33.96,7.7Z"/><path class="uuid-358aeb4b-b630-41fd-b418-4d7d55523f0f" d="m175.51,523.42c6.37.2,6.58-.48,10.05-.81-6.01,4.64-15.93,4.61-22.41-1.17,2.99.79,6.91,1.83,12.36,1.97Z"/><path class="uuid-358aeb4b-b630-41fd-b418-4d7d55523f0f" d="m150.1,498.13c.63-1.69,20.02,2.57,19.53,3.69-.71,1.48-20.22-1.91-19.53-3.69Z"/><path class="uuid-358aeb4b-b630-41fd-b418-4d7d55523f0f" d="m149.13,133.27c.72,1.1-1.69,3.04-3.03,3.93-11.25,6.83-26.21,15.96-27.18,14-.67-1.2,18.38-12.16,25.52-16.27.94-.54,4.01-2.12,4.69-1.66Z"/><path class="uuid-358aeb4b-b630-41fd-b418-4d7d55523f0f" d="m116.03,260.67c5.46,8.34,8.16,16.67,7.88,26.54-.23,7.7-8.59,14.43-16.39,18.79-12.42,6.15-25.04,7.62-25.73,7.91.77,4.01,1.4,8.14,2.39,12.19,2.76,11.3-3.37,23.61-18.05,24.48-5.74.33-11.35.21-16.82-1.93-5.38-2.09-8.85-5.79-8.77-11.67.08-5.15.94-10.3,1.63-15.43.33-2.55,1.07-5.03,1.71-7.88-6.15-1.17-11.63-1.96-16.96-3.31-7.31-1.84-14.15-4.64-19.68-10.17-6.48-6.48-8.28-14.31-6.7-22.9,3.19-17.51,13.62-29.93,28.7-38.62,5.87-3.39,12.03-6.55,18.44-8.72,16.75-5.68,32.36-2.6,46.61,7.7,8.11,5.87,17.18,15.65,21.74,23Zm-15.25,37.86c9.16-2.85,16.01-12.18,13.92-19.99-6.37,1.25-12.7.21-16.06-5.27-3.97-6.47-3.78-13.67,2.93-19.51-5.89-6.84-10.61-10.37-14.23-12.62-13.38-9.26-32.51-9.08-44.31-1.25,2.85,8.54,1.07,15.19-5.45,20.48-4.36,3.54-8.65,4.03-13.57,1.27-2.06-1.15-3.92-2.7-5.82-4.06-7.35,7.63-11.09,18.86-7.75,26.41,4.13.3,8.75-1.17,12.26,2.7,3.29,3.64,4.48,7.78,3.5,13.08,15.29,4.26,30.64,6.71,46.55,5.48.08-1.43.16-2.4.18-3.37.02-6.32,3.01-9.51,8.33-12.59,4.76-2.75,10.61-1.88,14.73,1.81,2.81,2.53,3.44,3.97,4.8,7.44Zm1.74-28.5c2.22,3.46,6.42,4.48,11.06,3.9-2.04-7.65-5.02-12.77-9.31-16.62-3.77,3.09-4.31,8.7-1.74,12.72Zm-5.61,30.01c-1.86-5.89-6.45-9.16-11.11-8.19-5.81,1.2-9.36,6.5-8.39,12.8,6.91.15,13.1-2.01,19.5-4.61Zm-25.82,39.19c3.39-1.56,5.02-4.33,4.67-7.83-.56-5.63-1.55-11.22-2.35-16.78h-6.37c0,3.87-.03,12.74-.03,16.26-.05,1.81-1.22,2.17-1.6.25-.72-3.7-1.38-12.55-2.14-16.4h-4.77c0,.86-.71,6.84-1.1,8.9-.36,1.84-1.68.67-1.68-.94-.1-2.01-.41-5.84-.66-8-2.2,0-3.24-.36-5.48-.36-.76,5.38-1.56,10.5-2.14,15.63-.49,4.25,1.65,7.29,5.3,9.07,6.02,2.91,12.18,3.06,18.35.21Zm-36.74-82.93c5.1-3.64,6.48-9.58,3.16-14.3-5.64,2.85-10.84,6.33-15.5,11.12,3.92,5.22,8.14,6.17,12.34,3.18Zm-12.24,41.46c1.38-7.59-2.2-10.96-10.17-9.43,1.97,5.12,5.87,7.34,10.17,9.43Z"/><path class="uuid-358aeb4b-b630-41fd-b418-4d7d55523f0f" d="m116.83,161.18c.13,8.26.48,13.9.39,22.15-.02,1.48-.05,4.56-.46,6.02-.3,1.73-1.07,1.78-1.33-.18-1.33-9.76-1.15-18.58-1.09-27.89.02-1.15.3-4.49,1.33-4.49.79,0,1.14,3.57,1.15,4.39Z"/><path class="uuid-358aeb4b-b630-41fd-b418-4d7d55523f0f" d="m111.58,149.33c.79.44,1.97,2.16.46,2.16-3.13-.15-26.33-11.99-30.62-15.5-.49-.39-2.25-1.5-1.68-2.55.51-.86,3.97.56,5.12,1.18,8.95,4.85,17.84,9.76,26.72,14.71Z"/><path class="uuid-358aeb4b-b630-41fd-b418-4d7d55523f0f" d="m87.22,243.45c2.93,2.85,4.8,6.76,4.26,10.5-.86,5.91-5.82,10.91-11.63,11.47-5.87.58-11.62-2.76-13.36-7.77-1.86-5.38.51-12.54,5.36-15.52,2.06-1.14,4.01-1.91,7.34-1.91,3.87.1,5.17,1.27,8.03,3.22Zm-1.17,12.55c2.4-5.58-.64-11.07-7.86-11.19-2.39,0-3.54.74-4.84,1.63-2.35,1.6-3.08,6.45-1.86,9.48,1.32,3.26,3.93,4.61,7.27,4.76,3.31.13,5.99-1.63,7.29-4.67Z"/><path class="uuid-358aeb4b-b630-41fd-b418-4d7d55523f0f" d="m51.64,263.69c6.98.15,12.85,5.73,12.62,11.58-.25,6.7-5.94,12.01-13.34,11.95-7.47-.07-11.32-4-11.29-11.57.02-6.8,5.25-12.09,12.01-11.96Zm8.42,13.25c.64-3.16-1.93-6.68-6.12-8.34-2.99-1.2-6.1-.51-8.44,1.88-2.4,2.48-2.65,5.48-1.71,8.57.84,2.73,3.36,4.16,6.94,4.25,4.15.1,8.62-2.95,9.33-6.35Z"/><path class="uuid-cd1a3307-dd54-4b94-8227-b5c69b6aacf5" d="m614.13,391.38c.87,4.84.94,9.81-.86,14.4-1.76,4.49-4.11,8.79-6.45,13.03-.79,1.43-2.34,2.47-3.54,3.69-.35-.18-.71-.35-1.07-.53,1.04-10.18-1.43-19.68-5.53-28.81-.77-1.71-.39-3.06.54-4.49,2.68-4.08,8.59-5.78,12.93-3.64,2.63,1.28,3.49,3.8,3.97,6.35Z"/><path class="uuid-ee365674-9182-453c-8fb1-7c0a86e70dc3" d="m604.72,257.58c7.34,7.63,11.07,18.86,7.73,26.41-3.92-.23-10.02-.99-13.51,2.88-3.29,3.62-3.22,7.6-2.25,12.9-15.29,4.26-30.95,6.48-46.88,5.25.28-1.46.16-2.17.16-3.14-.03-6.32-3.01-9.51-8.33-12.59-4.76-2.75-10.63-1.88-14.73,1.81-2.83,2.53-3.46,3.97-4.8,7.44-9.18-2.85-16.03-12.18-13.92-19.99,6.35,1.25,12.7.21,16.04-5.27,3.98-6.47,3.78-13.67-2.91-19.51,5.87-6.84,10.61-10.37,14.22-12.62,13.38-9.26,32.53-9.08,44.31-1.25-2.83,8.54-1.07,15.19,5.46,20.48,4.34,3.54,8.64,4.03,13.56,1.27,2.07-1.15,3.92-2.7,5.84-4.06Zm-32.76,29.63c7.47-.07,11.32-4,11.29-11.57-.02-6.8-5.25-12.09-11.99-11.96-6.99.15-12.87,5.73-12.64,11.58.26,6.7,5.94,12.01,13.34,11.95Zm-15.57-29.57c1.86-5.38-.51-12.54-5.36-15.52-2.06-1.14-4.01-1.91-7.32-1.91-3.87.1-5.18,1.27-8.05,3.22-2.93,2.85-4.79,6.76-4.26,10.5.86,5.91,5.84,10.91,11.63,11.47,5.89.58,11.62-2.76,13.36-7.77Z"/><path class="uuid-bd5a5cd1-ad5a-4d18-b2ed-e2e3db06f064" d="m600.77,297.78c-1.38-7.59,2.2-10.96,10.17-9.43-1.97,5.12-5.87,7.34-10.17,9.43Z"/><path class="uuid-cd1a3307-dd54-4b94-8227-b5c69b6aacf5" d="m594.16,415.69c.05,1.14-.02,2.27-.13,3.41-1.15,11.3-8.92,15.89-20.27,11.5,1.18-11.09-1.07-21.49-4.61-31.72-1.84-5.35,2.95-12.52,8.47-13.2,3.77-.44,6.19,1.79,8.13,4.48,5.51,7.59,7.98,16.24,8.41,25.54Z"/><path class="uuid-bd5a5cd1-ad5a-4d18-b2ed-e2e3db06f064" d="m600.89,253.14c-3.93,5.22-8.14,6.17-12.36,3.18-5.1-3.64-6.48-9.58-3.16-14.3,5.64,2.85,10.84,6.33,15.52,11.12Z"/><path class="uuid-cd1a3307-dd54-4b94-8227-b5c69b6aacf5" d="m593.14,377.12c.13,2.8-1.63,4.03-3.54,5.78-4.56-2.93-9.07-5.91-15.15-4.29-5.89,1.55-8.74,5.81-11.2,10.88-2.01-1.42-3.73-2.83-5.64-3.93-8.54-4.89-17.72-1.1-20.5,8.24-2.09,7.04-.36,13.62,2.58,19.86,1.71,3.6,3.22,5.99,5.35,7.85,1.74,1.58,3.55,3.09,5.99,2.67-6.53-8.26-6.93-13.2-7.86-18.77-.58-3.46-.44-6.81.95-10.05,1.83-4.18,5.71-5.53,9.64-3.18,3.44,2.04,6.07,5,7.6,8.67,3.08,7.4,4.95,15.06,5.28,23.17.38,9.72-6.24,19.22-20.45,15.94-7.9-1.83-15.14-5.36-20.7-11.35-5.07-5.46-9.53-11.48-14.25-17.28-.92-1.14-1.63-2.47-2.67-3.47-1.23-1.2-2.42-4.05-4.11-3.22-2.22,1.43.69,10.45,3.52,15.14-4.03,5.4-9.25,9.26-14.41,13.16-4.03,3.04-8.36,5.68-12.32,8.79-12.31,9.71-31.11,1.02-34.77-12.21-.53-1.88-1.02-3.8-1.22-5.73-1.4-13.61-2.68-27.21-4.03-40.81-.53-5.35-1.07-10.68-1.68-16.01-.3-2.6-.59-5,1.02-7.47,14.36-21.97,22.39-46.09,24.32-72.61,2.73.95,3.97,3.13,4.66,5.28,1.51,4.79,3.13,9.63,3.8,14.58,1.81,13.05,3.7,26.13,4.51,39.26.9,14.78.69,29.6.81,44.41,0,1.4-1,3.03-1.97,4.15-1.83,2.07-4,3.82-5.97,5.76-4.34,4.28-8.46,11.6-6.99,18.15,1.22-1.55,1.55-2.78,2.14-3.82,3.39-5.79,8.98-9.59,14.41-13.2,12.85-8.57,25.85-16.95,38.9-25.22,8.36-5.3,17.39-7.01,27.08-4.13,7.93,2.35,15.73,1.91,23.43-1.1,4.72-1.84,9.59-3.14,14.73-2.9,5.63.25,8.49,3.47,8.74,9.03Z"/><path class="uuid-bd5a5cd1-ad5a-4d18-b2ed-e2e3db06f064" d="m577.37,270.46c2.4,2.48,2.67,5.48,1.71,8.57-.84,2.73-3.36,4.16-6.94,4.25-4.15.1-8.62-2.95-9.31-6.35-.66-3.16,1.93-6.68,6.1-8.34,2.99-1.2,6.1-.51,8.44,1.88Z"/><path class="uuid-2561b4ff-e239-451c-8487-61047a49c4d3" d="m575.45,329.96c.48,4.25-1.66,7.29-5.31,9.07-6.02,2.91-12.18,3.06-18.35.21-3.37-1.56-5-4.33-4.67-7.83.56-5.63,1.56-11.22,2.37-16.78h6.35c0,3.87.03,12.74.03,16.26.05,1.81,1.22,2.17,1.6.25.72-3.7,1.4-12.55,2.14-16.4h4.77c0,.86.71,6.84,1.1,8.9.36,1.84,1.68.67,1.68-.94.1-2.01.41-5.84.66-8,2.2,0,3.24-.36,5.5-.36.74,5.38,1.55,10.5,2.14,15.63Z"/><path class="uuid-bd5a5cd1-ad5a-4d18-b2ed-e2e3db06f064" d="m549.53,246.44c2.37,1.6,3.08,6.45,1.86,9.48-1.32,3.26-3.92,4.61-7.27,4.76-3.29.13-5.97-1.63-7.29-4.67-2.4-5.58.64-11.07,7.86-11.19,2.39,0,3.54.74,4.84,1.63Z"/><path class="uuid-ee365674-9182-453c-8fb1-7c0a86e70dc3" d="m546.65,129.41v45.89c-12.77,7.39-25.55,14.79-38.95,22.56-7.14-3.77-14.91-7.77-22.59-11.93-5.02-2.7-9.86-5.69-14.86-8.39-2.09-1.14-3.04-2.44-3.01-4.94.16-12.21.21-24.42.16-36.61-.02-3.88,1.09-6.53,4.79-8.59,10.79-5.99,21.37-12.37,31.99-18.67,2.17-1.3,4.01-1.56,6.33-.23,11.39,6.61,22.85,13.08,34.29,19.61.56.33,1.05.74,1.84,1.3Zm-4.38,6.58c.48-.39,2.24-1.5,1.66-2.55-.51-.86-3.97.56-5.12,1.18-8.93,4.85-17.84,9.76-26.72,14.71-.79.44-1.97,2.16-.46,2.16,3.14-.15,26.33-11.99,30.64-15.5Zm-34.03,53.18c1.35-9.76,1.15-18.58,1.09-27.89-.02-1.15-.3-4.49-1.32-4.49-.79,0-1.15,3.57-1.15,4.39-.15,8.26-.49,13.9-.41,22.15.02,1.48.05,4.56.46,6.02.3,1.73,1.07,1.78,1.33-.18Zm-3.49-37.96c.67-1.2-18.38-12.16-25.52-16.27-.94-.54-4-2.12-4.69-1.66-.72,1.1,1.71,3.04,3.03,3.93,11.25,6.83,26.21,15.96,27.18,14Z"/><path class="uuid-bd5a5cd1-ad5a-4d18-b2ed-e2e3db06f064" d="m537.08,291.85c5.81,1.2,9.38,6.5,8.39,12.8-6.91.15-13.08-2.01-19.5-4.61,1.86-5.89,6.45-9.16,11.11-8.19Z"/><path class="uuid-bd5a5cd1-ad5a-4d18-b2ed-e2e3db06f064" d="m518.62,257.32c3.77,3.09,4.31,8.7,1.74,12.72-2.22,3.46-6.42,4.48-11.06,3.9,2.04-7.65,5.02-12.77,9.31-16.62Z"/><path class="uuid-f5562765-d9b4-4b0f-b47e-20929d94c129" d="m518.25,503.78c5.5,7.47,7.82,16.8-2.14,17.72-4.38-2.83-4.92-6.84-3.44-15.48-.69.58-2.9,2.22-3.73,4.25-2.37,6.48-2.52,10.37,1.53,16.62.61.95,1.23,1.93,1.78,2.93,3.32,6.15,2.3,14.04-2.73,18.91-1.18,1.15-3.06,2.17-4.66,2.22-3.52.12-7.17.05-10.56-.79-6.3-1.58-9.21-5.58-10.89-12.08-.84-3.26.31-7.45,2.5-12.16-5.86,2.75-8.29,7.54-8.41,13.57-.05,3.06.28,6.17.84,9.18,1.28,7.03.08,11.62-2.88,15.47-2.91,3.82-7.17,6.42-11.85,7.55-3.67.89-7.67,1.2-10.63.46-5.12-.99-10.42-4.29-14.1-7.19-2.81-2.19-5.66-4.46-8.79-6.12-8.47-4.52-19-2.44-25.27,4.82-3.36,3.9-6.86,7.75-8.36,13.74,7.37-5.28,13.28-11.85,22.89-12.98-1.84,8-5.99,13.87-11.45,18.84-2.25,2.06-4.94,3.75-7.63,5.22-7.31,3.98-14.86,4.34-22.48.76-3.24-1.53-6.42-3.16-9.67-4.66-6.86-3.11-14-4.46-21.37-2.37-3.08.86-6.12,2.14-8.85,3.78-3.31,1.99-6.25,4.57-9.2,7.39,8.19-2.8,16.37-5.1,25.96-4.16-4.66,5.36-9.4,9.4-15.02,12.29-7.78,4-16.06,6.27-24.88,6.04-6.5-.16-13.15.23-19.45-1-10.23-2.04-18.07-8.19-24.52-17.39,9.02-.59,16.67,1.58,24.78,4.95-10.28-11.02-20.7-15.48-34.78-11.32-3.87,1.14-7.6,2.93-11.14,4.87-13.94,7.65-25.72,3.62-35.79-6.45-4.43-4.43-7.63-9.69-9.15-15.88q4.57-1.07,22.1,11.48c-.08-1.78-.67-3.54-1.1-4.39-4.23-8.44-10.17-13.23-19.79-15.1-5.28-1.02-10.04-.2-14.41,2.76-2.7,1.83-5.2,3.92-7.83,5.82-6.94,5.03-14.35,5.71-22.13,2.22-1.48-.67-2.86-1.55-4.28-2.34-7.32-4.06-11.14-10.23-11.27-18.64-.03-1.79-.05-3.59-.16-5.36-.66-8.95-6.27-15.57-15.86-18.16.82,1.1,1.23,1.86,1.81,2.42,5.86,5.69,5.96,12.69,4.48,19.96-.23,1.14-1.28,2.4-2.34,2.83-4.05,1.68-8.28,2.32-12.72,2.5-9.43.36-18.33-14.38-12.46-22.36,3.7-5.02,5.58-11.12,4.92-17.52-.28-2.62-.74-3.57-2.22-6.04-.71-1.02-1.88-2.53-3.57-3.54,1.73,5.31,1.33,9.54-.61,13.61-1.22,2.57-2.42,2.91-4.43,1.27-5.5-4.51-4.8-15.07,1.37-18.66,3.77-2.19,7.72-4.05,11.96-6.25,6.3,15.68,17.11,27.4,32.07,35.18,5.07,2.63,10.1,3.36,15.15,2.7-5.3-2.17-8.88-4.31-12.64-7.52-10.53-8.98-18.46-21.26-23.41-34.37-4.92-13.06-4.72-26.1,1.73-38.75.28-.56.72-1.02,1.3-1.83,1.53,1.09,2.93,2.12,4.36,3.11,12.69,8.8,28.6,9.63,40.31-.1,2.53-2.12,6.1-6.05,7.34-9.07,2.6-6.42,3.62-11.7,4.99-19.55,4.46-.46,10.18.48,14.81,2.95,7.73,4.13,15.5,8.31,22.76,13.21,12.98,8.75,26.01,17.33,40.38,23.66,4.71,2.09,9.56,3.87,14.28,6.04-10.05-.3-19.83-2.24-29.34-5.36-9.31-3.04-18.44-6.61-28.05-9.23,6.55,3.75,12.92,7.91,19.73,11.12,6.86,3.24,14.18,5.51,21.29,8.19,1.02.36.99.84-.05.9-1.73.16-3.46.48-5.18.46-14.97-.21-29.98.03-44.92-.94-9.18-.61-16.19-.99-27.33-4.79-2.58-1.1-4.77-1.99-7.11-3.09-.74-.33-1.42-.59-2.12-1-1.17-.69-2.68-1.14-3.19-.05-.39.79.28,2.16,1.86,2.83,7.85,4.01,15.94,7.12,24.66,8.88,17.97,3.62,36.05,5.31,54.33,4.8,6.02-.16,12.01-.94,18.02-1.42,1.6-.13,3.21-.23,4.92,0-6.4,3.72-13.31,6.24-20.29,8.42-7.29,2.27-14.74,4-22.05,6.19-6.81,2.02-14.28.82-20.91,3.65-.71.3-.54,1.35.23,1.45,1.45.18,2.91.39,4.36.51,9.05.77,17.75-.99,26.56-2.85,34.54-7.34,67.48-19.27,99.25-34.45,10.1-4.82,19.46-11.19,29.47-16.27,10.12-5.17,20.47-9.97,30.97-14.31,9.82-4.08,20.14-6.25,31.29-5.56.39,1.3,3.14,10.53,4.2,13.76,4.62,14.1,21.6,20.45,34.85,16.93,5.56-1.48,10.76-3.67,15.19-7.47.72-.61,1.58-1.05,2.47-1.65,3.88,2.96,5.43,7.14,6.19,11.42,2.42,13.77.66,26.92-6.96,38.95-3.54,5.63-6.2,11.93-11.75,16.04-5.74,4.26-11.58,8.41-17.41,12.57-1.38.99-3.75,1.55-2.52,3.88,1.05,1.97,3.18,1.46,4.8.69,3.52-1.63,6.98-3.44,10.4-5.28,13.28-7.09,22.31-18.23,29.47-31.11.39-.71.77-1.43,1.17-2.14.07-.13.23-.21.76-.67,3.83,4.05,8.13,7.8,11.44,12.29Zm-38.75-6.33c-6.93,2.73-13.51,4.05-24.02,4.46,13.11,3.22,16.77,1.04,24.02-4.46Zm-32.17,12.82c19.28,6.2,26.51,3.54,31.66-4.25-9.99,3.6-14.73,5.66-31.66,4.25Zm-14.56,9.18c20.11,9.07,24.01,3.57,32.27-2.04-9.56,2.91-14.31,3.75-32.27,2.04Zm-4.43-54.91c-31.66,14.53-63.3,29.04-94.95,43.57,6.19,6.32,80-27.49,94.95-43.57Zm9.2,71.75c-18.15,6.22-36.68,10.2-55.86,10.89,14.56,5.99,46.71-.13,55.86-10.89Zm-26.69-92.12l-.39-.64c-1.42.63-2.86,1.2-4.26,1.89-23.4,11.72-46.7,23.63-70.22,35.1-14.3,6.96-28.74,13.69-44.39,17.34-3.24.76-6.33,2.09-10.6,3.52,2.12.81,3.08,1.33,4.08,1.51,4.61.86,9.02-.13,13.44-1.43,19.07-5.58,37.47-12.97,55.56-21.08,19.22-8.59,37.33-19.14,53.33-33.04,1.17-1.02,2.3-2.11,3.46-3.18Zm-41.96,119.24c-.77-2.6-2.71-3.13-4.48-3.77-4.89-1.74-12.9-5.02-17.8-6.75-16.17-5.74-28.48-6.07-45.54-4.69-6.76.79-14.28,2.73-16.42,3.42-11.4,3.73-14.36,5.31-25.72,9.21-1.18.41-2.2,1.32-3.29,1.99-.9.82-.71,1.56.46,1.27,18.46-4.16,37.12-6.53,56.01-6.32,18.95.21,37.79,2.04,56.78,5.63Zm-51.68-56.16c-22.57,7.86-32.56,9.36-56.21,13.82,27.71,2.52,36.69-2.78,56.21-13.82Zm-78.88,41.64c1.89-.07,3.78-.18,5.3-2.86-19.17-1.12-37.14-5.69-55.12-10.23-.95-.23-1.28,0-.36.9,2.17,1.33,4.2,3.04,6.53,3.88,5.94,2.16,11.95,4.13,18.03,5.79,8.37,2.29,16.98,2.85,25.62,2.52Zm-56.49-34.04c.33-.07.3-.56-.03-.61-11.8-1.38-17.97-2.3-33.96-7.7-.2-.07-.33.2-.16.31,11.95,8.62,21.59,10.94,34.16,8Zm3.7,7.77c-3.47.33-3.69,1-10.05.81-5.45-.15-9.36-1.18-12.36-1.97,6.48,5.78,16.4,5.81,22.41,1.17Zm-15.93-20.8c.49-1.12-18.91-5.38-19.53-3.69-.69,1.78,18.82,5.17,19.53,3.69Z"/><path class="uuid-cd1a3307-dd54-4b94-8227-b5c69b6aacf5" d="m451.35,243.61c14.87,62.51-17.49,123.27-57.98,149.07,3.16-3.77,3.82-5.58,3.52-13.06-2.32,3.88-1.84,3.08-3.13,5.46-5.22,8.37-9.63,13.13-15.89,19.94-5.92,6.42-16.16,11.62-24.81,12.54-7.78.84-15.33-.66-20.95-6.86-2.6-2.88-4.69-6.22-6.98-9.36-.81-1.12-1.53-2.29-2.78-3.21-1.07,7.6,2.44,13.61,6.71,19.35-7.31,2.9-26.19,2.71-34.96.36,1.76-3.21,3.8-6.27,5.17-9.61,1.3-3.16,2.81-6.52,1.45-10.97-1.09,1.42-1.78,2.2-2.35,3.06-.79,1.22-1.51,2.5-2.25,3.77-8.28,14.13-23.12,16.62-36.36,10.66-7.62-3.46-13.41-9.18-18.79-15.29-4.2-4.74-7.91-9.92-11.88-14.87-1.37-1.69-1.84-2.6-3.95-5.43-.28,4.82.84,9.08,4.08,13.25-38.25-24.01-72.82-84.09-57.79-148.33,16.19-69.14,75.69-112.18,139.3-112.58,63.15-.39,124,42.19,140.63,112.12Zm-29.62,84.9c3.93-13.13,6.73-26.44,6.2-40.23-.12-3.21-.02-4.97-.63-8.26-.26-1.23-1.35-4.31-2.32-5.31-1.22-1.22-1.45-.51-1.48.26-.1.46-.08,1.14,0,1.56,1.25,10.88-.21,25.44-2.34,36.08-2.24,11.29-4.54,19.38-8.85,30.14-1.48,3.7-3.11,7.34-4.38,11.2,2.6-1.69,4.38-4.05,5.91-6.65,3.49-5.91,5.92-12.24,7.88-18.81Zm-4.54-101.31c1-.49.77-1.81.58-2.58-1.71-15.6-11.39-30.19-28.68-33.19-13.64-2.62-23.94,3.44-29.76,9.31-1.35,1.45-4.36,5.94-5.4,9.59-.28.92.89,1.6,1.6.94,4.15-3.8,7.49-5.86,13.97-9.12,9.79-4.2,27.87-1.69,35.67,6.91,4.46,5.33,5.82,7.57,8.88,14.13.56.77,1.6,4.52,3.14,4Zm-3.69,86.79c3.26-21.46,5.51-42.3.21-63.74-2.12-8.56-5.91-18.72-13.2-24.7-10.99-9.02-24.02-9.81-36.74-4.61-8.85,3.6-15.04,10.58-20.12,18.84-6.86,11.16-10.88,23.22-13.13,35.97-3.32,18.76-5,37.47-5.66,56.57-.58,16.01.13,31.74,4.43,47.09,1.4,4.99,3.55,9.76,5.41,14.59.35.9.92,1.73,1.45,2.53,4.99,7.68,11.67,10.27,20.6,7.93,8.37-2.17,14.64-7.67,20.57-13.49,5.96-5.82,10.88-12.54,14.71-19.97,9.36-18.13,18.4-36.69,21.47-57.01Zm-119.95,65.42c4.29-15.35,5-31.08,4.43-47.09-.66-19.1-2.34-37.81-5.66-56.57-2.25-12.75-6.27-24.81-13.13-35.97-5.08-8.26-11.27-15.24-20.12-18.84-12.72-5.2-25.75-4.41-36.74,4.61-7.29,5.97-11.07,16.14-13.2,24.7-5.3,21.44-3.04,42.29.21,63.74,3.08,20.32,12.11,38.88,21.47,57.01,3.83,7.44,8.75,14.15,14.71,19.97,5.92,5.82,12.19,11.32,20.57,13.49,8.93,2.34,15.61-.25,20.6-7.93.53-.81,1.1-1.63,1.45-2.53,1.86-4.84,4.01-9.61,5.41-14.59Zm-26.23-168.14c.71.66,1.88-.02,1.6-.94-1.04-3.65-4.05-8.14-5.4-9.59-5.82-5.87-16.12-11.93-29.76-9.31-17.29,2.99-26.97,17.59-28.68,33.19-.2.77-.43,2.09.58,2.58,1.55.53,2.58-3.22,3.14-4,3.06-6.57,4.43-8.8,8.88-14.13,7.8-8.61,25.88-11.11,35.67-6.91,6.48,3.26,9.82,5.31,13.97,9.12Zm-52.42,142.69c-1.27-3.87-2.9-7.5-4.38-11.2-4.31-10.76-6.61-18.86-8.85-30.14-2.12-10.65-3.59-25.21-2.34-36.08.08-.43.1-1.1,0-1.56-.03-.77-.26-1.48-1.48-.26-.97,1-2.06,4.08-2.32,5.31-.61,3.29-.51,5.05-.63,8.26-.53,13.79,2.27,27.1,6.2,40.23,1.96,6.57,4.39,12.9,7.88,18.81,1.53,2.6,3.31,4.95,5.91,6.65Z"/><path class="uuid-ee365674-9182-453c-8fb1-7c0a86e70dc3" d="m427.41,28.58v46.02c-12.64,7.34-25.54,14.82-38.98,22.62-7.35-3.9-15.25-8.03-23.08-12.27-5-2.7-9.87-5.66-14.87-8.37-1.78-.99-2.5-2.19-2.47-4.26.15-12.69.18-25.39.21-38.07.02-3.14.94-5.31,4-7.03,11.04-6.2,21.9-12.74,32.81-19.2,1.96-1.15,3.7-1.63,5.91-.36,11.95,6.94,23.96,13.77,36.48,20.93Zm-4.54,6.42c.48-.39,2.24-1.5,1.66-2.55-.51-.87-3.95.56-5.12,1.18-8.93,4.84-17.84,9.76-26.7,14.71-.81.44-1.99,2.16-.48,2.16,3.14-.15,26.33-11.99,30.64-15.5Zm-34.03,53.18c1.35-9.76,1.15-18.58,1.09-27.89,0-1.15-.3-4.49-1.32-4.49-.79,0-1.14,3.57-1.15,4.39-.15,8.26-.49,13.9-.41,22.15.02,1.48.05,4.56.46,6.02.3,1.73,1.07,1.78,1.33-.18Zm-3.49-37.96c.67-1.2-18.38-12.16-25.5-16.27-.95-.54-4.01-2.12-4.69-1.68-.74,1.12,1.69,3.06,3.01,3.95,11.25,6.83,26.21,15.96,27.18,14Z"/><path class="uuid-bd5a5cd1-ad5a-4d18-b2ed-e2e3db06f064" d="m405.14,260.67c2.48,19.15,2.07,33.93-.76,52.92-2.01,12.55-5.53,24.73-10.96,36.28-5.84,12.44-12.59,24.3-22.61,33.89-3.26,3.11-6.96,5.99-10.91,8.08-8.75,4.64-18.26-.15-20.58-10.22,11.39-.67,20.22-6.42,28.04-14.15,9.82-9.69,15.43-21.57,18.12-34.95,3.55-17.82,2.45-34.91-8.1-50.5-6.45-9.53-14.58-16.96-25.77-20.58-1.51-.48-3.03-.72-4.85-1.55,2.63-7.65,4.59-11.8,9.21-17.18,2.39-2.88,7.08-7.5,15.63-10.23,11.6-3.06,30.13,5.68,33.53,28.19Z"/><path class="uuid-d894b491-b7c6-49be-930c-e47d0d678d32" d="m380.08,309.34c2.06,19.19-3.82,36.41-15.5,51.45-6.76,8.69-15.65,14.55-27.76,14.76-1.17-3.95-1.46-5.79-1.76-8.95,11.58.15,22.61-10.38,28.09-21.74,6.6-13.64,8.13-28.04,4.84-42.8-2.39-10.69-7.93-19.22-18.79-23.17-2.55-.92-5.13-.9-7.77-.43.67-4.01,1.78-7.16,2.76-10.45,4.79,0,9.54,1.32,13.61,4.06,13.2,8.92,20.58,21.59,22.28,37.25Z"/><path class="uuid-bd5a5cd1-ad5a-4d18-b2ed-e2e3db06f064" d="m351.22,313.52c1.99,6.15.72,12.04-1.45,17.87-1.14,3.08-3.16,6.02-5.43,8.41-3.01,3.18-5.96,2.32-6.7-2.12-.64-3.82-.69-7.65-.69-11.68s.48-7.4,1.78-11.48c1.22-4.01,4.41-7.04,6.8-6.88,3.47.26,4.84,3.21,5.69,5.89Z"/><path class="uuid-d894b491-b7c6-49be-930c-e47d0d678d32" d="m259.72,344.87c5.48,11.35,16.5,21.88,28.09,21.74-.3,3.16-.59,5-1.76,8.95-12.11-.21-20.99-6.07-27.76-14.76-11.68-15.04-17.56-32.27-15.5-51.45,1.69-15.66,9.08-28.33,22.28-37.25,4.06-2.75,8.82-4.06,13.61-4.06.99,3.29,2.09,6.43,2.76,10.45-2.63-.48-5.22-.49-7.77.43-10.86,3.95-16.4,12.47-18.79,23.17-3.29,14.76-1.76,29.16,4.84,42.8Z"/><path class="uuid-bd5a5cd1-ad5a-4d18-b2ed-e2e3db06f064" d="m285.91,326c0,4.03-.05,7.86-.69,11.68-.74,4.44-3.69,5.3-6.7,2.12-2.27-2.39-4.29-5.33-5.43-8.41-2.17-5.82-3.44-11.72-1.45-17.87.86-2.68,2.22-5.63,5.69-5.89,2.39-.16,5.58,2.86,6.8,6.88,1.3,4.08,1.78,7.45,1.78,11.48Z"/><path class="uuid-ee365674-9182-453c-8fb1-7c0a86e70dc3" d="m273.88,28.55v46.12c-12.9,7.47-25.68,14.87-39.21,22.72-12.21-6.76-24.96-13.87-37.76-20.88-1.84-1-2.39-2.3-2.37-4.31.12-12.36.25-24.73.12-37.1-.03-4.05,1.48-6.47,5.02-8.46,10.76-6.05,21.36-12.41,31.99-18.69,1.99-1.17,3.73-1.5,5.91-.23,11.95,6.94,23.96,13.76,36.31,20.83Zm-9.25,7.67c1.32-.89,3.73-2.83,3.01-3.95-.67-.44-3.73,1.14-4.69,1.68-7.14,4.11-26.18,15.07-25.52,16.27.97,1.96,15.93-7.17,27.2-14Zm-28.89,46.12c.1-8.24-.26-13.89-.39-22.15-.02-.82-.36-4.39-1.15-4.39-1.02,0-1.32,3.34-1.33,4.49-.07,9.31-.25,18.13,1.09,27.89.26,1.96,1.04,1.91,1.33.18.41-1.46.46-4.54.46-6.02Zm-5.17-31.84c1.5,0,.31-1.71-.48-2.16-8.88-4.95-17.77-9.87-26.7-14.71-1.17-.63-4.61-2.06-5.12-1.18-.58,1.05,1.17,2.16,1.66,2.55,4.31,3.5,27.49,15.35,30.64,15.5Z"/><path class="uuid-bd5a5cd1-ad5a-4d18-b2ed-e2e3db06f064" d="m266.89,242.72c4.62,5.38,6.58,9.53,9.21,17.18-1.83.82-3.34,1.07-4.85,1.55-11.19,3.62-19.32,11.06-25.77,20.58-10.55,15.58-11.65,32.68-8.1,50.5,2.68,13.38,8.29,25.26,18.12,34.95,7.82,7.73,16.65,13.48,28.02,14.15-2.3,10.07-11.81,14.86-20.57,10.22-3.95-2.09-7.65-4.97-10.91-8.08-10.02-9.59-16.77-21.46-22.61-33.89-5.43-11.55-8.95-23.73-10.96-36.28-2.83-18.99-3.24-33.76-.76-52.92,3.41-22.51,21.93-31.25,33.53-28.19,8.54,2.73,13.25,7.35,15.63,10.23Z"/><path class="uuid-cd1a3307-dd54-4b94-8227-b5c69b6aacf5" d="m181.25,357.72c1.97,3.09,2.47,5.96,2.07,9.56-1.55,13.9-2.7,27.86-4.06,41.78-.54,5.5-1.12,11.01-1.97,16.47-1.97,12.75-10.61,18.76-22.26,20.34-3.27.44-7.39-.64-10.22-2.42-10.18-6.42-20.24-13.1-28.6-21.93-.43-.46-.74-1.02-1.22-1.66,2.47-4.71,6.2-13.77,3.49-15.19-1.76-.92-4.64,3.72-6.58,6.24-4.56,5.91-9.05,11.91-14.12,17.39-5.64,6.12-13.03,9.63-21.06,11.67-4.01,1.02-8.16,1.05-11.96-.71-5.56-2.58-8.23-7.37-8.46-13.29-.36-9.28,1.94-18.12,5.97-26.39,1.23-2.52,3.49-4.74,5.71-6.57,4.46-3.65,9.28-2.16,11.14,3.26,2.27,6.66,1.78,11.9-.99,17.87-1.35,2.93-2.37,5.76-6.4,9.44,1.58,2.16,6.88-.9,8.19-2.48,5.33-6.47,6.37-10.63,6.55-19.45.07-2.86-.3-5.84-1.02-8.62-2.55-9.79-13.31-11.32-19.17-8.01-2.24,1.27-4.29,2.85-6.43,4.28-8.08-12.78-14.31-14.31-26.24-6.58-4-3.01-4.67-4.57-3.62-8.36,1-3.6,3.82-6.15,7.88-6.15,3.69.02,7.4.72,11.07,1.37,1.89.35,3.73,1.12,5.54,1.83,6.93,2.68,14.02,3.04,21.08.95,10.56-3.16,20.22-1.37,29.32,4.54,12.41,8.06,24.91,15.99,37.23,24.19,5.56,3.7,10.79,7.86,14.28,13.79.63,1.05,1.2,1.84,1.81,3.37,1.5-6.86-1.02-12.62-5.3-17.16-2.01-2.14-6.66-7.16-8.92-9.02,0,0,.07-.54.02-3.01-.59-24.96.59-49.79,4.69-74.45,1.04-6.24,1.91-12.52,3.24-18.71.74-3.44,2.2-6.75,5.92-9.1.56,4.44,1.02,8.44,1.6,12.44,2.96,21.09,10.35,40.59,21.78,58.51Z"/><path class="uuid-ee365674-9182-453c-8fb1-7c0a86e70dc3" d="m155.15,129.23v46.22c-6.07,3.42-12.6,7.01-19.04,10.74-6.47,3.75-12.85,7.65-19.74,11.78-7.49-3.98-15.4-8.1-23.23-12.36-5-2.7-9.86-5.68-14.87-8.37-1.83-1-2.47-2.29-2.45-4.28.05-14.17.02-28.32.02-42.25,12.57-8.46,25.06-15.7,37.81-22.51,1.79-.95,3.32-.86,5.03.12,11.98,6.89,23.99,13.76,36.48,20.91Zm-9.05,7.98c1.33-.89,3.75-2.83,3.03-3.93-.67-.46-3.75,1.12-4.69,1.66-7.14,4.11-26.19,15.07-25.52,16.27.97,1.96,15.93-7.17,27.18-14Zm-28.88,46.12c.08-8.24-.26-13.89-.39-22.15-.02-.82-.36-4.39-1.15-4.39-1.04,0-1.32,3.34-1.33,4.49-.07,9.31-.25,18.13,1.09,27.89.26,1.96,1.04,1.91,1.33.18.41-1.46.44-4.54.46-6.02Zm-5.18-31.84c1.51,0,.33-1.71-.46-2.16-8.88-4.95-17.77-9.86-26.72-14.71-1.15-.63-4.61-2.04-5.12-1.18-.58,1.05,1.18,2.16,1.68,2.55,4.29,3.5,27.49,15.35,30.62,15.5Z"/><path class="uuid-ee365674-9182-453c-8fb1-7c0a86e70dc3" d="m114.69,278.54c2.09,7.82-4.76,17.14-13.92,19.99-1.37-3.47-1.99-4.9-4.8-7.44-4.11-3.69-9.97-4.56-14.73-1.81-5.31,3.08-8.31,6.27-8.33,12.59-.02.97-.1,1.94-.18,3.37-15.91,1.23-31.26-1.22-46.55-5.48.97-5.3-.21-9.44-3.5-13.08-3.5-3.87-8.13-2.4-12.26-2.7-3.34-7.55.39-18.77,7.75-26.41,1.91,1.37,3.77,2.91,5.82,4.06,4.92,2.76,9.21,2.27,13.57-1.27,6.52-5.3,8.29-11.95,5.45-20.48,11.8-7.83,30.93-8.01,44.31,1.25,3.62,2.25,8.34,5.78,14.23,12.62-6.71,5.84-6.89,13.05-2.93,19.51,3.36,5.48,9.69,6.52,16.06,5.27Zm-23.22-24.6c.54-3.73-1.33-7.65-4.26-10.5-2.86-1.96-4.16-3.13-8.03-3.22-3.32,0-5.28.77-7.34,1.91-4.85,2.98-7.22,10.14-5.36,15.52,1.74,5,7.49,8.34,13.36,7.77,5.81-.56,10.78-5.56,11.63-11.47Zm-27.21,21.32c.23-5.86-5.64-11.44-12.62-11.58-6.76-.13-11.99,5.17-12.01,11.96-.03,7.57,3.82,11.5,11.29,11.57,7.4.07,13.1-5.25,13.34-11.95Z"/><path class="uuid-bd5a5cd1-ad5a-4d18-b2ed-e2e3db06f064" d="m113.58,273.94c-4.64.58-8.84-.44-11.06-3.9-2.57-4.01-2.02-9.63,1.74-12.72,4.29,3.85,7.27,8.97,9.31,16.62Z"/><path class="uuid-bd5a5cd1-ad5a-4d18-b2ed-e2e3db06f064" d="m85.8,291.85c4.66-.97,9.25,2.3,11.11,8.19-6.4,2.6-12.59,4.76-19.5,4.61-.97-6.3,2.58-11.6,8.39-12.8Z"/><path class="uuid-bd5a5cd1-ad5a-4d18-b2ed-e2e3db06f064" d="m78.18,244.81c7.22.12,10.27,5.61,7.86,11.19-1.3,3.04-3.98,4.8-7.29,4.67-3.34-.15-5.96-1.5-7.27-4.76-1.22-3.03-.49-7.88,1.86-9.48,1.3-.89,2.45-1.63,4.84-1.63Z"/><path class="uuid-2561b4ff-e239-451c-8487-61047a49c4d3" d="m75.77,331.41c.35,3.5-1.28,6.27-4.67,7.83-6.17,2.85-12.32,2.7-18.35-.21-3.65-1.78-5.79-4.82-5.3-9.07.58-5.13,1.38-10.25,2.14-15.63,2.24,0,3.27.36,5.48.36.25,2.16.56,5.99.66,8,0,1.61,1.32,2.78,1.68.94.39-2.06,1.1-8.05,1.1-8.9h4.77c.76,3.85,1.42,12.7,2.14,16.4.38,1.93,1.55,1.56,1.6-.25,0-3.52.03-12.39.03-16.26h6.37c.81,5.56,1.79,11.16,2.35,16.78Z"/><path class="uuid-bd5a5cd1-ad5a-4d18-b2ed-e2e3db06f064" d="m53.95,268.59c4.2,1.66,6.76,5.18,6.12,8.34-.71,3.41-5.18,6.45-9.33,6.35-3.59-.08-6.1-1.51-6.94-4.25-.94-3.09-.69-6.09,1.71-8.57,2.34-2.39,5.45-3.08,8.44-1.88Z"/><path class="uuid-cd1a3307-dd54-4b94-8227-b5c69b6aacf5" d="m47.99,386.61c4.61,2.35,7.26,8.06,5.64,12.72-2.53,7.26-4.41,14.63-4.64,22.34-.1,2.91-.02,5.84-.02,9.05-3.97,2.09-7.78,1.94-11.63.84-3.13-.89-5.63-2.76-6.68-5.91-.92-2.73-1.84-5.64-1.88-8.47-.08-9.82,2.6-18.92,8.33-27.02,3.13-4.41,6.84-5.61,10.88-3.55Z"/><path class="uuid-bd5a5cd1-ad5a-4d18-b2ed-e2e3db06f064" d="m37.51,242.02c3.32,4.72,1.94,10.66-3.16,14.3-4.2,2.99-8.42,2.04-12.34-3.18,4.66-4.79,9.86-8.28,15.5-11.12Z"/><path class="uuid-cd1a3307-dd54-4b94-8227-b5c69b6aacf5" d="m26.49,390.26c.23.97-.13,2.2-.51,3.21-5.2,13.89-5.4,14.82-5.3,29.68-1.74-1.48-3.08-2.19-3.82-3.29-4.74-7.11-8.9-14.46-8.62-23.4.07-2.11.35-4.23.9-6.25,1.2-4.48,3.55-6.12,8.16-6.1,3.97.03,8.33,2.83,9.18,6.15Z"/><path class="uuid-bd5a5cd1-ad5a-4d18-b2ed-e2e3db06f064" d="m11.94,288.35c7.96-1.53,11.55,1.84,10.17,9.43-4.29-2.09-8.19-4.31-10.17-9.43Z"/></g></svg>